<svg xmlns="http://www.w3.org/2000/svg" viewBox="0 0 24 24" width="24" height="24" fill="none" stroke="currentColor" stroke-width="1.7" stroke-linecap="round" stroke-linejoin="round">
  <path d="M6 6.5l1 12.5a1.5 1.5 0 0 0 1.5 1.4h7a1.5 1.5 0 0 0 1.5-1.4l1-12.5z" fill="currentColor" fill-opacity="0.14" stroke="none"/>
  <path d="M4 6.5h16"/>
  <path d="M9 6.5V5a1.5 1.5 0 0 1 1.5-1.5h3A1.5 1.5 0 0 1 15 5v1.5"/>
  <path d="M6 6.5l1 12.5a1.5 1.5 0 0 0 1.5 1.4h7a1.5 1.5 0 0 0 1.5-1.4l1-12.5"/>
  <path d="M10 10.5v6M14 10.5v6" opacity="0.5"/>
</svg>
